{
	"asset":{
		"generator":"Khronos glTF Blender I/O v5.1.18",
		"version":"2.0"
	},
	"extensionsUsed":[
		"KHR_materials_specular"
	],
	"scene":0,
	"scenes":[
		{
			"name":"Garden",
			"nodes":[
				1
			]
		},
		{
			"name":"Scene",
			"nodes":[
				2
			]
		},
		{
			"name":"Scene.001"
		}
	],
	"nodes":[
		{
			"mesh":0,
			"name":"Flowers",
			"translation":[
				-0.04613041877746582,
				0.019137665629386902,
				0.34395885467529297
			]
		},
		{
			"children":[
				0
			],
			"mesh":1,
			"name":"Ground"
		},
		{
			"mesh":2,
			"name":"Plane"
		}
	],
	"animations":[
		{
			"channels":[
				{
					"sampler":0,
					"target":{
						"node":0,
						"path":"weights"
					}
				}
			],
			"name":"B\u00e9zierCurve.088Action",
			"samplers":[
				{
					"input":104,
					"interpolation":"LINEAR",
					"output":105
				}
			]
		}
	],
	"materials":[
		{
			"alphaMode":"BLEND",
			"doubleSided":true,
			"extensions":{
				"KHR_materials_specular":{
					"specularFactor":0
				}
			},
			"name":"Flowers",
			"pbrMetallicRoughness":{
				"baseColorTexture":{
					"index":0
				},
				"metallicFactor":0.20000000298023224
			}
		},
		{
			"doubleSided":true,
			"name":"Ground",
			"pbrMetallicRoughness":{
				"baseColorTexture":{
					"index":1
				},
				"metallicFactor":0.9000000357627869
			}
		},
		{
			"doubleSided":true,
			"extensions":{
				"KHR_materials_specular":{
					"specularFactor":0
				}
			},
			"name":"Props",
			"pbrMetallicRoughness":{
				"metallicFactor":0.054545462131500244
			}
		},
		{
			"doubleSided":true,
			"name":"Water",
			"pbrMetallicRoughness":{
				"baseColorFactor":[
					0.03321274369955063,
					0.43230265378952026,
					0.5733209252357483,
					1
				],
				"metallicFactor":0,
				"roughnessFactor":0.0727272629737854
			}
		}
	],
	"meshes":[
		{
			"extras":{
				"targetNames":[
					"copy2",
					"copy3",
					"copy4",
					"copy5",
					"copy6",
					"copy7",
					"copy8",
					"copy9",
					"copy10",
					"copy11",
					"copy12",
					"copy13",
					"copy14",
					"copy15",
					"copy16",
					"copy17",
					"copy18",
					"copy19",
					"copy20",
					"copy21",
					"copy22",
					"copy23",
					"copy24",
					"copy25",
					"copy26",
					"copy27",
					"copy28",
					"copy29",
					"copy30",
					"copy31",
					"copy32",
					"copy33",
					"copy34",
					"copy35",
					"copy36"
				]
			},
			"name":"B\u00e9zierCurve.088",
			"primitives":[
				{
					"attributes":{
						"POSITION":0,
						"NORMAL":1,
						"TEXCOORD_0":2,
						"TANGENT":3
					},
					"indices":4,
					"material":0,
					"targets":[
						{
							"POSITION":5,
							"NORMAL":6
						},
						{
							"POSITION":7,
							"NORMAL":8
						},
						{
							"POSITION":9,
							"NORMAL":10
						},
						{
							"POSITION":11,
							"NORMAL":12
						},
						{
							"POSITION":13,
							"NORMAL":14
						},
						{
							"POSITION":15,
							"NORMAL":16
						},
						{
							"POSITION":17,
							"NORMAL":18
						},
						{
							"POSITION":19,
							"NORMAL":20
						},
						{
							"POSITION":21,
							"NORMAL":22
						},
						{
							"POSITION":23,
							"NORMAL":24
						},
						{
							"POSITION":25,
							"NORMAL":26
						},
						{
							"POSITION":27,
							"NORMAL":28
						},
						{
							"POSITION":29,
							"NORMAL":30
						},
						{
							"POSITION":31,
							"NORMAL":32
						},
						{
							"POSITION":33,
							"NORMAL":34
						},
						{
							"POSITION":35,
							"NORMAL":36
						},
						{
							"POSITION":37,
							"NORMAL":38
						},
						{
							"POSITION":39,
							"NORMAL":40
						},
						{
							"POSITION":41,
							"NORMAL":42
						},
						{
							"POSITION":43,
							"NORMAL":44
						},
						{
							"POSITION":45,
							"NORMAL":46
						},
						{
							"POSITION":47,
							"NORMAL":48
						},
						{
							"POSITION":49,
							"NORMAL":50
						},
						{
							"POSITION":51,
							"NORMAL":52
						},
						{
							"POSITION":53,
							"NORMAL":54
						},
						{
							"POSITION":55,
							"NORMAL":56
						},
						{
							"POSITION":57,
							"NORMAL":58
						},
						{
							"POSITION":59,
							"NORMAL":60
						},
						{
							"POSITION":61,
							"NORMAL":62
						},
						{
							"POSITION":63,
							"NORMAL":64
						},
						{
							"POSITION":65,
							"NORMAL":66
						},
						{
							"POSITION":67,
							"NORMAL":68
						},
						{
							"POSITION":69,
							"NORMAL":70
						},
						{
							"POSITION":71,
							"NORMAL":72
						},
						{
							"POSITION":73,
							"NORMAL":74
						}
					]
				}
			],
			"weights":[
				0,
				0,
				0,
				0,
				0,
				0,
				0,
				0,
				0,
				0,
				0,
				0,
				0,
				0,
				0,
				0,
				0,
				0,
				0,
				0,
				0,
				0,
				0,
				0,
				0,
				0,
				0,
				0,
				0,
				0,
				0,
				0,
				0,
				0,
				0
			]
		},
		{
			"name":"Plane.003",
			"primitives":[
				{
					"attributes":{
						"POSITION":75,
						"NORMAL":76,
						"TEXCOORD_0":77,
						"TANGENT":78,
						"COLOR_0":79
					},
					"indices":80,
					"material":1
				},
				{
					"attributes":{
						"POSITION":81,
						"NORMAL":82,
						"TEXCOORD_0":83,
						"TANGENT":84,
						"COLOR_0":85
					},
					"indices":86,
					"material":2
				},
				{
					"attributes":{
						"POSITION":87,
						"NORMAL":88,
						"TEXCOORD_0":89,
						"TANGENT":90,
						"COLOR_0":91
					},
					"indices":92,
					"material":3
				},
				{
					"attributes":{
						"POSITION":93,
						"NORMAL":94,
						"TEXCOORD_0":95,
						"TANGENT":96,
						"COLOR_0":97
					},
					"indices":98,
					"material":0
				}
			]
		},
		{
			"name":"Plane.002",
			"primitives":[
				{
					"attributes":{
						"POSITION":99,
						"NORMAL":100,
						"TEXCOORD_0":101,
						"TANGENT":102
					},
					"indices":103
				}
			]
		}
	],
	"textures":[
		{
			"sampler":0,
			"source":0
		},
		{
			"sampler":0,
			"source":1
		}
	],
	"images":[
		{
			"mimeType":"image/png",
			"name":"Foliage",
			"uri":"Foliage.png"
		},
		{
			"mimeType":"image/png",
			"name":"Ground",
			"uri":"Ground.png"
		}
	],
	"accessors":[
		{
			"bufferView":0,
			"componentType":5126,
			"count":140788,
			"max":[
				1.9267220497131348,
				0.09655755758285522,
				2.0777664184570312
			],
			"min":[
				-1.880615472793579,
				-0.07270877808332443,
				-2.9727742671966553
			],
			"type":"VEC3"
		},
		{
			"bufferView":1,
			"componentType":5126,
			"count":140788,
			"type":"VEC3"
		},
		{
			"bufferView":2,
			"componentType":5126,
			"count":140788,
			"type":"VEC2"
		},
		{
			"bufferView":3,
			"componentType":5126,
			"count":140788,
			"type":"VEC4"
		},
		{
			"bufferView":4,
			"componentType":5125,
			"count":247176,
			"type":"SCALAR"
		},
		{
			"componentType":5126,
			"count":140788,
			"max":[
				0,
				0,
				0
			],
			"min":[
				0,
				0,
				0
			],
			"sparse":{
				"count":1,
				"indices":{
					"bufferView":5,
					"componentType":5121
				},
				"values":{
					"bufferView":6
				}
			},
			"type":"VEC3"
		},
		{
			"componentType":5126,
			"count":140788,
			"sparse":{
				"count":61735,
				"indices":{
					"bufferView":7,
					"componentType":5125
				},
				"values":{
					"bufferView":8
				}
			},
			"type":"VEC3"
		},
		{
			"componentType":5126,
			"count":140788,
			"max":[
				0,
				0,
				0
			],
			"min":[
				0,
				0,
				0
			],
			"sparse":{
				"count":1,
				"indices":{
					"bufferView":9,
					"componentType":5121
				},
				"values":{
					"bufferView":10
				}
			},
			"type":"VEC3"
		},
		{
			"componentType":5126,
			"count":140788,
			"sparse":{
				"count":61735,
				"indices":{
					"bufferView":11,
					"componentType":5125
				},
				"values":{
					"bufferView":12
				}
			},
			"type":"VEC3"
		},
		{
			"componentType":5126,
			"count":140788,
			"max":[
				0,
				0,
				0
			],
			"min":[
				0,
				0,
				0
			],
			"sparse":{
				"count":1,
				"indices":{
					"bufferView":13,
					"componentType":5121
				},
				"values":{
					"bufferView":14
				}
			},
			"type":"VEC3"
		},
		{
			"componentType":5126,
			"count":140788,
			"sparse":{
				"count":61735,
				"indices":{
					"bufferView":15,
					"componentType":5125
				},
				"values":{
					"bufferView":16
				}
			},
			"type":"VEC3"
		},
		{
			"componentType":5126,
			"count":140788,
			"max":[
				0,
				0,
				0
			],
			"min":[
				0,
				0,
				0
			],
			"sparse":{
				"count":1,
				"indices":{
					"bufferView":17,
					"componentType":5121
				},
				"values":{
					"bufferView":18
				}
			},
			"type":"VEC3"
		},
		{
			"componentType":5126,
			"count":140788,
			"sparse":{
				"count":61735,
				"indices":{
					"bufferView":19,
					"componentType":5125
				},
				"values":{
					"bufferView":20
				}
			},
			"type":"VEC3"
		},
		{
			"componentType":5126,
			"count":140788,
			"max":[
				0,
				0,
				0
			],
			"min":[
				0,
				0,
				0
			],
			"sparse":{
				"count":1,
				"indices":{
					"bufferView":21,
					"componentType":5121
				},
				"values":{
					"bufferView":22
				}
			},
			"type":"VEC3"
		},
		{
			"componentType":5126,
			"count":140788,
			"sparse":{
				"count":61735,
				"indices":{
					"bufferView":23,
					"componentType":5125
				},
				"values":{
					"bufferView":24
				}
			},
			"type":"VEC3"
		},
		{
			"componentType":5126,
			"count":140788,
			"max":[
				0,
				0,
				0
			],
			"min":[
				0,
				0,
				0
			],
			"sparse":{
				"count":1,
				"indices":{
					"bufferView":25,
					"componentType":5121
				},
				"values":{
					"bufferView":26
				}
			},
			"type":"VEC3"
		},
		{
			"componentType":5126,
			"count":140788,
			"sparse":{
				"count":61735,
				"indices":{
					"bufferView":27,
					"componentType":5125
				},
				"values":{
					"bufferView":28
				}
			},
			"type":"VEC3"
		},
		{
			"componentType":5126,
			"count":140788,
			"max":[
				0.11654901504516602,
				0.05801345407962799,
				0.1520369052886963
			],
			"min":[
				-0.09295654296875,
				-0.0056587085127830505,
				-0.06417202949523926
			],
			"sparse":{
				"count":806,
				"indices":{
					"bufferView":29,
					"componentType":5125
				},
				"values":{
					"bufferView":30
				}
			},
			"type":"VEC3"
		},
		{
			"componentType":5126,
			"count":140788,
			"sparse":{
				"count":62229,
				"indices":{
					"bufferView":31,
					"componentType":5125
				},
				"values":{
					"bufferView":32
				}
			},
			"type":"VEC3"
		},
		{
			"componentType":5126,
			"count":140788,
			"max":[
				0.221726655960083,
				0.1566244214773178,
				0.2788066864013672
			],
			"min":[
				-0.17516064643859863,
				-0.0061208829283714294,
				-0.21708369255065918
			],
			"sparse":{
				"count":1086,
				"indices":{
					"bufferView":33,
					"componentType":5125
				},
				"values":{
					"bufferView":34
				}
			},
			"type":"VEC3"
		},
		{
			"componentType":5126,
			"count":140788,
			"sparse":{
				"count":62313,
				"indices":{
					"bufferView":35,
					"componentType":5125
				},
				"values":{
					"bufferView":36
				}
			},
			"type":"VEC3"
		},
		{
			"componentType":5126,
			"count":140788,
			"max":[
				0.3349332809448242,
				0.23659208416938782,
				0.4211568832397461
			],
			"min":[
				-0.26459240913391113,
				-0.0060869380831718445,
				-0.32792019844055176
			],
			"sparse":{
				"count":2176,
				"indices":{
					"bufferView":37,
					"componentType":5125
				},
				"values":{
					"bufferView":38
				}
			},
			"type":"VEC3"
		},
		{
			"componentType":5126,
			"count":140788,
			"sparse":{
				"count":63043,
				"indices":{
					"bufferView":39,
					"componentType":5125
				},
				"values":{
					"bufferView":40
				}
			},
			"type":"VEC3"
		},
		{
			"componentType":5126,
			"count":140788,
			"max":[
				0.33396005630493164,
				0.2359044849872589,
				0.4199330806732178
			],
			"min":[
				-0.2638235092163086,
				-0.011926688253879547,
				-0.3269670009613037
			],
			"sparse":{
				"count":4680,
				"indices":{
					"bufferView":41,
					"componentType":5125
				},
				"values":{
					"bufferView":42
				}
			},
			"type":"VEC3"
		},
		{
			"componentType":5126,
			"count":140788,
			"sparse":{
				"count":64599,
				"indices":{
					"bufferView":43,
					"componentType":5125
				},
				"values":{
					"bufferView":44
				}
			},
			"type":"VEC3"
		},
		{
			"componentType":5126,
			"count":140788,
			"max":[
				0.29473161697387695,
				0.20819418132305145,
				0.3706059455871582
			],
			"min":[
				-0.2328336238861084,
				-0.018397241830825806,
				-0.288560152053833
			],
			"sparse":{
				"count":7459,
				"indices":{
					"bufferView":45,
					"componentType":5125
				},
				"values":{
					"bufferView":46
				}
			},
			"type":"VEC3"
		},
		{
			"componentType":5126,
			"count":140788,
			"sparse":{
				"count":66135,
				"indices":{
					"bufferView":47,
					"componentType":5125
				},
				"values":{
					"bufferView":48
				}
			},
			"type":"VEC3"
		},
		{
			"componentType":5126,
			"count":140788,
			"max":[
				0.29473161697387695,
				0.22788105905056,
				0.3706059455871582
			],
			"min":[
				-0.2328336238861084,
				-0.015568830072879791,
				-0.288560152053833
			],
			"sparse":{
				"count":8611,
				"indices":{
					"bufferView":49,
					"componentType":5125
				},
				"values":{
					"bufferView":50
				}
			},
			"type":"VEC3"
		},
		{
			"componentType":5126,
			"count":140788,
			"sparse":{
				"count":66764,
				"indices":{
					"bufferView":51,
					"componentType":5125
				},
				"values":{
					"bufferView":52
				}
			},
			"type":"VEC3"
		},
		{
			"componentType":5126,
			"count":140788,
			"max":[
				0.29473161697387695,
				0.20819418132305145,
				0.3706059455871582
			],
			"min":[
				-0.2328336238861084,
				-0.015877723693847656,
				-0.288560152053833
			],
			"sparse":{
				"count":12717,
				"indices":{
					"bufferView":53,
					"componentType":5125
				},
				"values":{
					"bufferView":54
				}
			},
			"type":"VEC3"
		},
		{
			"componentType":5126,
			"count":140788,
			"sparse":{
				"count":68939,
				"indices":{
					"bufferView":55,
					"componentType":5125
				},
				"values":{
					"bufferView":56
				}
			},
			"type":"VEC3"
		},
		{
			"componentType":5126,
			"count":140788,
			"max":[
				0.29473161697387695,
				0.20819418132305145,
				0.3706059455871582
			],
			"min":[
				-0.2328336238861084,
				-0.043594226241111755,
				-0.288560152053833
			],
			"sparse":{
				"count":13860,
				"indices":{
					"bufferView":57,
					"componentType":5125
				},
				"values":{
					"bufferView":58
				}
			},
			"type":"VEC3"
		},
		{
			"componentType":5126,
			"count":140788,
			"sparse":{
				"count":69577,
				"indices":{
					"bufferView":59,
					"componentType":5125
				},
				"values":{
					"bufferView":60
				}
			},
			"type":"VEC3"
		},
		{
			"componentType":5126,
			"count":140788,
			"max":[
				0.29473161697387695,
				0.26833611726760864,
				0.3706059455871582
			],
			"min":[
				-0.2328336238861084,
				-0.03791514411568642,
				-0.288560152053833
			],
			"sparse":{
				"count":19941,
				"indices":{
					"bufferView":61,
					"componentType":5125
				},
				"values":{
					"bufferView":62
				}
			},
			"type":"VEC3"
		},
		{
			"componentType":5126,
			"count":140788,
			"sparse":{
				"count":73410,
				"indices":{
					"bufferView":63,
					"componentType":5125
				},
				"values":{
					"bufferView":64
				}
			},
			"type":"VEC3"
		},
		{
			"componentType":5126,
			"count":140788,
			"max":[
				0.29473161697387695,
				0.22853708267211914,
				0.3706059455871582
			],
			"min":[
				-0.2328336238861084,
				-0.03791514411568642,
				-0.288560152053833
			],
			"sparse":{
				"count":22039,
				"indices":{
					"bufferView":65,
					"componentType":5125
				},
				"values":{
					"bufferView":66
				}
			},
			"type":"VEC3"
		},
		{
			"componentType":5126,
			"count":140788,
			"sparse":{
				"count":74494,
				"indices":{
					"bufferView":67,
					"componentType":5125
				},
				"values":{
					"bufferView":68
				}
			},
			"type":"VEC3"
		},
		{
			"componentType":5126,
			"count":140788,
			"max":[
				0.29473161697387695,
				0.22853708267211914,
				0.3706059455871582
			],
			"min":[
				-0.2328336238861084,
				-0.03791514411568642,
				-0.288560152053833
			],
			"sparse":{
				"count":24750,
				"indices":{
					"bufferView":69,
					"componentType":5125
				},
				"values":{
					"bufferView":70
				}
			},
			"type":"VEC3"
		},
		{
			"componentType":5126,
			"count":140788,
			"sparse":{
				"count":76069,
				"indices":{
					"bufferView":71,
					"componentType":5125
				},
				"values":{
					"bufferView":72
				}
			},
			"type":"VEC3"
		},
		{
			"componentType":5126,
			"count":140788,
			"max":[
				0.29473161697387695,
				0.22853708267211914,
				0.3706059455871582
			],
			"min":[
				-0.2328336238861084,
				-0.03791514411568642,
				-0.288560152053833
			],
			"sparse":{
				"count":35745,
				"indices":{
					"bufferView":73,
					"componentType":5125
				},
				"values":{
					"bufferView":74
				}
			},
			"type":"VEC3"
		},
		{
			"componentType":5126,
			"count":140788,
			"sparse":{
				"count":82514,
				"indices":{
					"bufferView":75,
					"componentType":5125
				},
				"values":{
					"bufferView":76
				}
			},
			"type":"VEC3"
		},
		{
			"componentType":5126,
			"count":140788,
			"max":[
				0.29473161697387695,
				0.3102724850177765,
				0.3706059455871582
			],
			"min":[
				-0.2328336238861084,
				-0.03791514411568642,
				-0.288560152053833
			],
			"sparse":{
				"count":43735,
				"indices":{
					"bufferView":77,
					"componentType":5125
				},
				"values":{
					"bufferView":78
				}
			},
			"type":"VEC3"
		},
		{
			"componentType":5126,
			"count":140788,
			"sparse":{
				"count":86793,
				"indices":{
					"bufferView":79,
					"componentType":5125
				},
				"values":{
					"bufferView":80
				}
			},
			"type":"VEC3"
		},
		{
			"componentType":5126,
			"count":140788,
			"max":[
				0.29473161697387695,
				0.3024381399154663,
				0.3706059455871582
			],
			"min":[
				-0.2328336238861084,
				-0.03791514411568642,
				-0.288560152053833
			],
			"sparse":{
				"count":50633,
				"indices":{
					"bufferView":81,
					"componentType":5125
				},
				"values":{
					"bufferView":82
				}
			},
			"type":"VEC3"
		},
		{
			"componentType":5126,
			"count":140788,
			"sparse":{
				"count":90558,
				"indices":{
					"bufferView":83,
					"componentType":5125
				},
				"values":{
					"bufferView":84
				}
			},
			"type":"VEC3"
		},
		{
			"componentType":5126,
			"count":140788,
			"max":[
				0.30634069442749023,
				0.27355748414993286,
				0.3706059455871582
			],
			"min":[
				-0.2577989101409912,
				-0.03791514411568642,
				-0.2944660186767578
			],
			"sparse":{
				"count":60196,
				"indices":{
					"bufferView":85,
					"componentType":5125
				},
				"values":{
					"bufferView":86
				}
			},
			"type":"VEC3"
		},
		{
			"componentType":5126,
			"count":140788,
			"sparse":{
				"count":96353,
				"indices":{
					"bufferView":87,
					"componentType":5125
				},
				"values":{
					"bufferView":88
				}
			},
			"type":"VEC3"
		},
		{
			"componentType":5126,
			"count":140788,
			"max":[
				0.29473161697387695,
				0.30188143253326416,
				0.3706059455871582
			],
			"min":[
				-0.2328336238861084,
				-0.03791514411568642,
				-0.288560152053833
			],
			"sparse":{
				"count":69450,
				"indices":{
					"bufferView":89,
					"componentType":5125
				},
				"values":{
					"bufferView":90
				}
			},
			"type":"VEC3"
		},
		{
			"componentType":5126,
			"count":140788,
			"sparse":{
				"count":101705,
				"indices":{
					"bufferView":91,
					"componentType":5125
				},
				"values":{
					"bufferView":92
				}
			},
			"type":"VEC3"
		},
		{
			"componentType":5126,
			"count":140788,
			"max":[
				0.29473161697387695,
				0.27355748414993286,
				0.3706059455871582
			],
			"min":[
				-0.2328336238861084,
				-0.03791514411568642,
				-0.288560152053833
			],
			"sparse":{
				"count":87569,
				"indices":{
					"bufferView":93,
					"componentType":5125
				},
				"values":{
					"bufferView":94
				}
			},
			"type":"VEC3"
		},
		{
			"bufferView":95,
			"componentType":5126,
			"count":140788,
			"type":"VEC3"
		},
		{
			"bufferView":96,
			"componentType":5126,
			"count":140788,
			"max":[
				0.3432505130767822,
				0.3313797116279602,
				0.4288198947906494
			],
			"min":[
				-0.40640902519226074,
				-0.03791514411568642,
				-0.5185437202453613
			],
			"type":"VEC3"
		},
		{
			"bufferView":97,
			"componentType":5126,
			"count":140788,
			"type":"VEC3"
		},
		{
			"bufferView":98,
			"componentType":5126,
			"count":140788,
			"max":[
				0.2973644733428955,
				0.34288978576660156,
				0.3706059455871582
			],
			"min":[
				-0.3441852331161499,
				-0.03791514411568642,
				-0.4391512870788574
			],
			"type":"VEC3"
		},
		{
			"bufferView":99,
			"componentType":5126,
			"count":140788,
			"type":"VEC3"
		},
		{
			"bufferView":100,
			"componentType":5126,
			"count":140788,
			"max":[
				0.2973644733428955,
				0.2976716160774231,
				0.3706059455871582
			],
			"min":[
				-0.3441852331161499,
				-0.03791514411568642,
				-0.4391512870788574
			],
			"type":"VEC3"
		},
		{
			"bufferView":101,
			"componentType":5126,
			"count":140788,
			"type":"VEC3"
		},
		{
			"bufferView":102,
			"componentType":5126,
			"count":140788,
			"max":[
				0.2973644733428955,
				0.3102659583091736,
				0.3706059455871582
			],
			"min":[
				-0.3441852331161499,
				-0.03791514411568642,
				-0.4391512870788574
			],
			"type":"VEC3"
		},
		{
			"bufferView":103,
			"componentType":5126,
			"count":140788,
			"type":"VEC3"
		},
		{
			"bufferView":104,
			"componentType":5126,
			"count":140788,
			"max":[
				0.2973644733428955,
				0.3106131851673126,
				0.3706059455871582
			],
			"min":[
				-0.3441852331161499,
				-0.03791514411568642,
				-0.4391512870788574
			],
			"type":"VEC3"
		},
		{
			"bufferView":105,
			"componentType":5126,
			"count":140788,
			"type":"VEC3"
		},
		{
			"bufferView":106,
			"componentType":5126,
			"count":140788,
			"max":[
				0.2973644733428955,
				0.3164959251880646,
				0.3706059455871582
			],
			"min":[
				-0.3441852331161499,
				-0.03791514411568642,
				-0.4391512870788574
			],
			"type":"VEC3"
		},
		{
			"bufferView":107,
			"componentType":5126,
			"count":140788,
			"type":"VEC3"
		},
		{
			"bufferView":108,
			"componentType":5126,
			"count":140788,
			"max":[
				0.34442806243896484,
				0.3152869641780853,
				0.3842029571533203
			],
			"min":[
				-0.3641493320465088,
				-0.03791514411568642,
				-0.4391512870788574
			],
			"type":"VEC3"
		},
		{
			"bufferView":109,
			"componentType":5126,
			"count":140788,
			"type":"VEC3"
		},
		{
			"bufferView":110,
			"componentType":5126,
			"count":140788,
			"max":[
				0.36653733253479004,
				0.3152869641780853,
				0.40886545181274414
			],
			"min":[
				-0.3875246047973633,
				-0.03791514411568642,
				-0.46132779121398926
			],
			"type":"VEC3"
		},
		{
			"bufferView":111,
			"componentType":5126,
			"count":140788,
			"type":"VEC3"
		},
		{
			"bufferView":112,
			"componentType":5126,
			"count":140788,
			"max":[
				0.43650341033935547,
				0.3291764557361603,
				0.5671236515045166
			],
			"min":[
				-0.36281394958496094,
				-0.03791514411568642,
				-0.4391512870788574
			],
			"type":"VEC3"
		},
		{
			"bufferView":113,
			"componentType":5126,
			"count":140788,
			"type":"VEC3"
		},
		{
			"bufferView":114,
			"componentType":5126,
			"count":140788,
			"max":[
				0.49591636657714844,
				0.37398096919059753,
				0.6443154811859131
			],
			"min":[
				-0.3607487678527832,
				-0.03791514411568642,
				-0.47244930267333984
			],
			"type":"VEC3"
		},
		{
			"bufferView":115,
			"componentType":5126,
			"count":140788,
			"type":"VEC3"
		},
		{
			"bufferView":116,
			"componentType":5126,
			"count":140788,
			"max":[
				0.48714113235473633,
				0.36736342310905457,
				0.6329143047332764
			],
			"min":[
				-0.47887909412384033,
				-0.03791514411568642,
				-0.46408939361572266
			],
			"type":"VEC3"
		},
		{
			"bufferView":117,
			"componentType":5126,
			"count":140788,
			"type":"VEC3"
		},
		{
			"bufferView":118,
			"componentType":5126,
			"count":140788,
			"max":[
				0.4648008346557617,
				0.327524870634079,
				0.5642781257629395
			],
			"min":[
				-0.5259724855422974,
				-0.03791514411568642,
				-0.4391512870788574
			],
			"type":"VEC3"
		},
		{
			"bufferView":119,
			"componentType":5126,
			"count":140788,
			"type":"VEC3"
		},
		{
			"bufferView":120,
			"componentType":5126,
			"count":509,
			"max":[
				1.9865471124649048,
				0.11260306090116501,
				2.493393898010254
			],
			"min":[
				-2.0128557682037354,
				-1.9417698383331299,
				-2.7870194911956787
			],
			"type":"VEC3"
		},
		{
			"bufferView":121,
			"componentType":5126,
			"count":509,
			"type":"VEC3"
		},
		{
			"bufferView":122,
			"componentType":5126,
			"count":509,
			"type":"VEC2"
		},
		{
			"bufferView":123,
			"componentType":5126,
			"count":509,
			"type":"VEC4"
		},
		{
			"bufferView":124,
			"componentType":5126,
			"count":509,
			"type":"VEC3"
		},
		{
			"bufferView":125,
			"componentType":5123,
			"count":2106,
			"type":"SCALAR"
		},
		{
			"bufferView":126,
			"componentType":5126,
			"count":9604,
			"max":[
				2.2857420444488525,
				2.4640965461730957,
				2.4113197326660156
			],
			"min":[
				-2.589690685272217,
				-0.7972427010536194,
				-3.453248977661133
			],
			"type":"VEC3"
		},
		{
			"bufferView":127,
			"componentType":5126,
			"count":9604,
			"type":"VEC3"
		},
		{
			"bufferView":128,
			"componentType":5126,
			"count":9604,
			"type":"VEC2"
		},
		{
			"bufferView":129,
			"componentType":5126,
			"count":9604,
			"type":"VEC4"
		},
		{
			"bufferView":130,
			"componentType":5126,
			"count":9604,
			"type":"VEC3"
		},
		{
			"bufferView":131,
			"componentType":5123,
			"count":16416,
			"type":"SCALAR"
		},
		{
			"bufferView":132,
			"componentType":5126,
			"count":113,
			"max":[
				0.04797333478927612,
				-0.055800337344408035,
				2.195206642150879
			],
			"min":[
				-1.3291997909545898,
				-1.0879201889038086,
				0.6737796664237976
			],
			"type":"VEC3"
		},
		{
			"bufferView":133,
			"componentType":5126,
			"count":113,
			"type":"VEC3"
		},
		{
			"bufferView":134,
			"componentType":5126,
			"count":113,
			"type":"VEC2"
		},
		{
			"bufferView":135,
			"componentType":5126,
			"count":113,
			"type":"VEC4"
		},
		{
			"bufferView":136,
			"componentType":5126,
			"count":113,
			"type":"VEC3"
		},
		{
			"bufferView":137,
			"componentType":5123,
			"count":486,
			"type":"SCALAR"
		},
		{
			"bufferView":138,
			"componentType":5126,
			"count":36,
			"max":[
				-0.28294670581817627,
				-0.05653559789061546,
				1.4948025941848755
			],
			"min":[
				-0.6753753423690796,
				-0.06324617564678192,
				0.9120205640792847
			],
			"type":"VEC3"
		},
		{
			"bufferView":139,
			"componentType":5126,
			"count":36,
			"type":"VEC3"
		},
		{
			"bufferView":140,
			"componentType":5126,
			"count":36,
			"type":"VEC2"
		},
		{
			"bufferView":141,
			"componentType":5126,
			"count":36,
			"type":"VEC4"
		},
		{
			"bufferView":142,
			"componentType":5126,
			"count":36,
			"type":"VEC3"
		},
		{
			"bufferView":143,
			"componentType":5123,
			"count":36,
			"type":"SCALAR"
		},
		{
			"bufferView":144,
			"componentType":5126,
			"count":4,
			"max":[
				1,
				0,
				1
			],
			"min":[
				-1,
				0,
				-1
			],
			"type":"VEC3"
		},
		{
			"bufferView":145,
			"componentType":5126,
			"count":4,
			"type":"VEC3"
		},
		{
			"bufferView":146,
			"componentType":5126,
			"count":4,
			"type":"VEC2"
		},
		{
			"bufferView":147,
			"componentType":5126,
			"count":4,
			"type":"VEC4"
		},
		{
			"bufferView":148,
			"componentType":5123,
			"count":6,
			"type":"SCALAR"
		},
		{
			"bufferView":149,
			"componentType":5126,
			"count":351,
			"max":[
				14.583333333333334
			],
			"min":[
				0
			],
			"type":"SCALAR"
		},
		{
			"bufferView":150,
			"componentType":5126,
			"count":12285,
			"type":"SCALAR"
		}
	],
	"bufferViews":[
		{
			"buffer":0,
			"byteLength":1689456,
			"byteOffset":0,
			"target":34962
		},
		{
			"buffer":0,
			"byteLength":1689456,
			"byteOffset":1689456,
			"target":34962
		},
		{
			"buffer":0,
			"byteLength":1126304,
			"byteOffset":3378912,
			"target":34962
		},
		{
			"buffer":0,
			"byteLength":2252608,
			"byteOffset":4505216,
			"target":34962
		},
		{
			"buffer":0,
			"byteLength":988704,
			"byteOffset":6757824,
			"target":34963
		},
		{
			"buffer":0,
			"byteLength":1,
			"byteOffset":7746528
		},
		{
			"buffer":0,
			"byteLength":12,
			"byteOffset":7746532
		},
		{
			"buffer":0,
			"byteLength":246940,
			"byteOffset":7746544
		},
		{
			"buffer":0,
			"byteLength":740820,
			"byteOffset":7993484
		},
		{
			"buffer":0,
			"byteLength":1,
			"byteOffset":8734304
		},
		{
			"buffer":0,
			"byteLength":12,
			"byteOffset":8734308
		},
		{
			"buffer":0,
			"byteLength":246940,
			"byteOffset":8734320
		},
		{
			"buffer":0,
			"byteLength":740820,
			"byteOffset":8981260
		},
		{
			"buffer":0,
			"byteLength":1,
			"byteOffset":9722080
		},
		{
			"buffer":0,
			"byteLength":12,
			"byteOffset":9722084
		},
		{
			"buffer":0,
			"byteLength":246940,
			"byteOffset":9722096
		},
		{
			"buffer":0,
			"byteLength":740820,
			"byteOffset":9969036
		},
		{
			"buffer":0,
			"byteLength":1,
			"byteOffset":10709856
		},
		{
			"buffer":0,
			"byteLength":12,
			"byteOffset":10709860
		},
		{
			"buffer":0,
			"byteLength":246940,
			"byteOffset":10709872
		},
		{
			"buffer":0,
			"byteLength":740820,
			"byteOffset":10956812
		},
		{
			"buffer":0,
			"byteLength":1,
			"byteOffset":11697632
		},
		{
			"buffer":0,
			"byteLength":12,
			"byteOffset":11697636
		},
		{
			"buffer":0,
			"byteLength":246940,
			"byteOffset":11697648
		},
		{
			"buffer":0,
			"byteLength":740820,
			"byteOffset":11944588
		},
		{
			"buffer":0,
			"byteLength":1,
			"byteOffset":12685408
		},
		{
			"buffer":0,
			"byteLength":12,
			"byteOffset":12685412
		},
		{
			"buffer":0,
			"byteLength":246940,
			"byteOffset":12685424
		},
		{
			"buffer":0,
			"byteLength":740820,
			"byteOffset":12932364
		},
		{
			"buffer":0,
			"byteLength":3224,
			"byteOffset":13673184
		},
		{
			"buffer":0,
			"byteLength":9672,
			"byteOffset":13676408
		},
		{
			"buffer":0,
			"byteLength":248916,
			"byteOffset":13686080
		},
		{
			"buffer":0,
			"byteLength":746748,
			"byteOffset":13934996
		},
		{
			"buffer":0,
			"byteLength":4344,
			"byteOffset":14681744
		},
		{
			"buffer":0,
			"byteLength":13032,
			"byteOffset":14686088
		},
		{
			"buffer":0,
			"byteLength":249252,
			"byteOffset":14699120
		},
		{
			"buffer":0,
			"byteLength":747756,
			"byteOffset":14948372
		},
		{
			"buffer":0,
			"byteLength":8704,
			"byteOffset":15696128
		},
		{
			"buffer":0,
			"byteLength":26112,
			"byteOffset":15704832
		},
		{
			"buffer":0,
			"byteLength":252172,
			"byteOffset":15730944
		},
		{
			"buffer":0,
			"byteLength":756516,
			"byteOffset":15983116
		},
		{
			"buffer":0,
			"byteLength":18720,
			"byteOffset":16739632
		},
		{
			"buffer":0,
			"byteLength":56160,
			"byteOffset":16758352
		},
		{
			"buffer":0,
			"byteLength":258396,
			"byteOffset":16814512
		},
		{
			"buffer":0,
			"byteLength":775188,
			"byteOffset":17072908
		},
		{
			"buffer":0,
			"byteLength":29836,
			"byteOffset":17848096
		},
		{
			"buffer":0,
			"byteLength":89508,
			"byteOffset":17877932
		},
		{
			"buffer":0,
			"byteLength":264540,
			"byteOffset":17967440
		},
		{
			"buffer":0,
			"byteLength":793620,
			"byteOffset":18231980
		},
		{
			"buffer":0,
			"byteLength":34444,
			"byteOffset":19025600
		},
		{
			"buffer":0,
			"byteLength":103332,
			"byteOffset":19060044
		},
		{
			"buffer":0,
			"byteLength":267056,
			"byteOffset":19163376
		},
		{
			"buffer":0,
			"byteLength":801168,
			"byteOffset":19430432
		},
		{
			"buffer":0,
			"byteLength":50868,
			"byteOffset":20231600
		},
		{
			"buffer":0,
			"byteLength":152604,
			"byteOffset":20282468
		},
		{
			"buffer":0,
			"byteLength":275756,
			"byteOffset":20435072
		},
		{
			"buffer":0,
			"byteLength":827268,
			"byteOffset":20710828
		},
		{
			"buffer":0,
			"byteLength":55440,
			"byteOffset":21538096
		},
		{
			"buffer":0,
			"byteLength":166320,
			"byteOffset":21593536
		},
		{
			"buffer":0,
			"byteLength":278308,
			"byteOffset":21759856
		},
		{
			"buffer":0,
			"byteLength":834924,
			"byteOffset":22038164
		},
		{
			"buffer":0,
			"byteLength":79764,
			"byteOffset":22873088
		},
		{
			"buffer":0,
			"byteLength":239292,
			"byteOffset":22952852
		},
		{
			"buffer":0,
			"byteLength":293640,
			"byteOffset":23192144
		},
		{
			"buffer":0,
			"byteLength":880920,
			"byteOffset":23485784
		},
		{
			"buffer":0,
			"byteLength":88156,
			"byteOffset":24366704
		},
		{
			"buffer":0,
			"byteLength":264468,
			"byteOffset":24454860
		},
		{
			"buffer":0,
			"byteLength":297976,
			"byteOffset":24719328
		},
		{
			"buffer":0,
			"byteLength":893928,
			"byteOffset":25017304
		},
		{
			"buffer":0,
			"byteLength":99000,
			"byteOffset":25911232
		},
		{
			"buffer":0,
			"byteLength":297000,
			"byteOffset":26010232
		},
		{
			"buffer":0,
			"byteLength":304276,
			"byteOffset":26307232
		},
		{
			"buffer":0,
			"byteLength":912828,
			"byteOffset":26611508
		},
		{
			"buffer":0,
			"byteLength":142980,
			"byteOffset":27524336
		},
		{
			"buffer":0,
			"byteLength":428940,
			"byteOffset":27667316
		},
		{
			"buffer":0,
			"byteLength":330056,
			"byteOffset":28096256
		},
		{
			"buffer":0,
			"byteLength":990168,
			"byteOffset":28426312
		},
		{
			"buffer":0,
			"byteLength":174940,
			"byteOffset":29416480
		},
		{
			"buffer":0,
			"byteLength":524820,
			"byteOffset":29591420
		},
		{
			"buffer":0,
			"byteLength":347172,
			"byteOffset":30116240
		},
		{
			"buffer":0,
			"byteLength":1041516,
			"byteOffset":30463412
		},
		{
			"buffer":0,
			"byteLength":202532,
			"byteOffset":31504928
		},
		{
			"buffer":0,
			"byteLength":607596,
			"byteOffset":31707460
		},
		{
			"buffer":0,
			"byteLength":362232,
			"byteOffset":32315056
		},
		{
			"buffer":0,
			"byteLength":1086696,
			"byteOffset":32677288
		},
		{
			"buffer":0,
			"byteLength":240784,
			"byteOffset":33763984
		},
		{
			"buffer":0,
			"byteLength":722352,
			"byteOffset":34004768
		},
		{
			"buffer":0,
			"byteLength":385412,
			"byteOffset":34727120
		},
		{
			"buffer":0,
			"byteLength":1156236,
			"byteOffset":35112532
		},
		{
			"buffer":0,
			"byteLength":277800,
			"byteOffset":36268768
		},
		{
			"buffer":0,
			"byteLength":833400,
			"byteOffset":36546568
		},
		{
			"buffer":0,
			"byteLength":406820,
			"byteOffset":37379968
		},
		{
			"buffer":0,
			"byteLength":1220460,
			"byteOffset":37786788
		},
		{
			"buffer":0,
			"byteLength":350276,
			"byteOffset":39007248
		},
		{
			"buffer":0,
			"byteLength":1050828,
			"byteOffset":39357524
		},
		{
			"buffer":0,
			"byteLength":1689456,
			"byteOffset":40408352,
			"target":34962
		},
		{
			"buffer":0,
			"byteLength":1689456,
			"byteOffset":42097808,
			"target":34962
		},
		{
			"buffer":0,
			"byteLength":1689456,
			"byteOffset":43787264,
			"target":34962
		},
		{
			"buffer":0,
			"byteLength":1689456,
			"byteOffset":45476720,
			"target":34962
		},
		{
			"buffer":0,
			"byteLength":1689456,
			"byteOffset":47166176,
			"target":34962
		},
		{
			"buffer":0,
			"byteLength":1689456,
			"byteOffset":48855632,
			"target":34962
		},
		{
			"buffer":0,
			"byteLength":1689456,
			"byteOffset":50545088,
			"target":34962
		},
		{
			"buffer":0,
			"byteLength":1689456,
			"byteOffset":52234544,
			"target":34962
		},
		{
			"buffer":0,
			"byteLength":1689456,
			"byteOffset":53924000,
			"target":34962
		},
		{
			"buffer":0,
			"byteLength":1689456,
			"byteOffset":55613456,
			"target":34962
		},
		{
			"buffer":0,
			"byteLength":1689456,
			"byteOffset":57302912,
			"target":34962
		},
		{
			"buffer":0,
			"byteLength":1689456,
			"byteOffset":58992368,
			"target":34962
		},
		{
			"buffer":0,
			"byteLength":1689456,
			"byteOffset":60681824,
			"target":34962
		},
		{
			"buffer":0,
			"byteLength":1689456,
			"byteOffset":62371280,
			"target":34962
		},
		{
			"buffer":0,
			"byteLength":1689456,
			"byteOffset":64060736,
			"target":34962
		},
		{
			"buffer":0,
			"byteLength":1689456,
			"byteOffset":65750192,
			"target":34962
		},
		{
			"buffer":0,
			"byteLength":1689456,
			"byteOffset":67439648,
			"target":34962
		},
		{
			"buffer":0,
			"byteLength":1689456,
			"byteOffset":69129104,
			"target":34962
		},
		{
			"buffer":0,
			"byteLength":1689456,
			"byteOffset":70818560,
			"target":34962
		},
		{
			"buffer":0,
			"byteLength":1689456,
			"byteOffset":72508016,
			"target":34962
		},
		{
			"buffer":0,
			"byteLength":1689456,
			"byteOffset":74197472,
			"target":34962
		},
		{
			"buffer":0,
			"byteLength":1689456,
			"byteOffset":75886928,
			"target":34962
		},
		{
			"buffer":0,
			"byteLength":1689456,
			"byteOffset":77576384,
			"target":34962
		},
		{
			"buffer":0,
			"byteLength":1689456,
			"byteOffset":79265840,
			"target":34962
		},
		{
			"buffer":0,
			"byteLength":1689456,
			"byteOffset":80955296,
			"target":34962
		},
		{
			"buffer":0,
			"byteLength":6108,
			"byteOffset":82644752,
			"target":34962
		},
		{
			"buffer":0,
			"byteLength":6108,
			"byteOffset":82650860,
			"target":34962
		},
		{
			"buffer":0,
			"byteLength":4072,
			"byteOffset":82656968,
			"target":34962
		},
		{
			"buffer":0,
			"byteLength":8144,
			"byteOffset":82661040,
			"target":34962
		},
		{
			"buffer":0,
			"byteLength":6108,
			"byteOffset":82669184,
			"target":34962
		},
		{
			"buffer":0,
			"byteLength":4212,
			"byteOffset":82675292,
			"target":34963
		},
		{
			"buffer":0,
			"byteLength":115248,
			"byteOffset":82679504,
			"target":34962
		},
		{
			"buffer":0,
			"byteLength":115248,
			"byteOffset":82794752,
			"target":34962
		},
		{
			"buffer":0,
			"byteLength":76832,
			"byteOffset":82910000,
			"target":34962
		},
		{
			"buffer":0,
			"byteLength":153664,
			"byteOffset":82986832,
			"target":34962
		},
		{
			"buffer":0,
			"byteLength":115248,
			"byteOffset":83140496,
			"target":34962
		},
		{
			"buffer":0,
			"byteLength":32832,
			"byteOffset":83255744,
			"target":34963
		},
		{
			"buffer":0,
			"byteLength":1356,
			"byteOffset":83288576,
			"target":34962
		},
		{
			"buffer":0,
			"byteLength":1356,
			"byteOffset":83289932,
			"target":34962
		},
		{
			"buffer":0,
			"byteLength":904,
			"byteOffset":83291288,
			"target":34962
		},
		{
			"buffer":0,
			"byteLength":1808,
			"byteOffset":83292192,
			"target":34962
		},
		{
			"buffer":0,
			"byteLength":1356,
			"byteOffset":83294000,
			"target":34962
		},
		{
			"buffer":0,
			"byteLength":972,
			"byteOffset":83295356,
			"target":34963
		},
		{
			"buffer":0,
			"byteLength":432,
			"byteOffset":83296328,
			"target":34962
		},
		{
			"buffer":0,
			"byteLength":432,
			"byteOffset":83296760,
			"target":34962
		},
		{
			"buffer":0,
			"byteLength":288,
			"byteOffset":83297192,
			"target":34962
		},
		{
			"buffer":0,
			"byteLength":576,
			"byteOffset":83297480,
			"target":34962
		},
		{
			"buffer":0,
			"byteLength":432,
			"byteOffset":83298056,
			"target":34962
		},
		{
			"buffer":0,
			"byteLength":72,
			"byteOffset":83298488,
			"target":34963
		},
		{
			"buffer":0,
			"byteLength":48,
			"byteOffset":83298560,
			"target":34962
		},
		{
			"buffer":0,
			"byteLength":48,
			"byteOffset":83298608,
			"target":34962
		},
		{
			"buffer":0,
			"byteLength":32,
			"byteOffset":83298656,
			"target":34962
		},
		{
			"buffer":0,
			"byteLength":64,
			"byteOffset":83298688,
			"target":34962
		},
		{
			"buffer":0,
			"byteLength":12,
			"byteOffset":83298752,
			"target":34963
		},
		{
			"buffer":0,
			"byteLength":1404,
			"byteOffset":83298764
		},
		{
			"buffer":0,
			"byteLength":49140,
			"byteOffset":83300168
		}
	],
	"samplers":[
		{
			"magFilter":9729,
			"minFilter":9987
		}
	],
	"buffers":[
		{
			"byteLength":83349308,
			"uri":"Garden.bin"
		}
	]
}
